<?xml version="1.0" encoding="UTF-8"?>
<svg width="8px" height="15px" viewBox="0 0 8 15" version="1.1" xmlns="http://www.w3.org/2000/svg" xmlns:xlink="http://www.w3.org/1999/xlink">
    <!-- Generator: sketchtool 53.1 (72631) - https://sketchapp.com -->
    <title>A0C3F9E6-64B9-4BB3-AA24-159C16BFBF88</title>
    <desc>Created with sketchtool.</desc>
    <g id="Page-1" stroke="none" stroke-width="1" fill="none" fill-rule="evenodd">
        <g id="Home-HD" transform="translate(-198.000000, -5110.000000)" fill="#29221D">
            <g id="Group-11" transform="translate(0.000000, 4545.000000)">
                <g id="Group-7-Copy-2" transform="translate(122.000000, 564.000000)">
                    <g id="facebook-contact" transform="translate(76.000000, 1.000000)">
                        <path d="M8,2.5266546 L6.54046774,2.5266546 C5.40614669,2.5266546 5.18966573,3.10500905 5.18966573,3.84228525 L5.18966573,5.52705693 L7.89322885,5.52705693 L7.51414228,8.15831825 L5.18966573,8.15831825 L5.18966573,15 L2.3783519,15 L2.3783519,8.15731241 L0,8.15731241 L0,5.52705693 L2.3783519,5.52705693 L2.3783519,3.52645343 C2.2706012,1.21102394 3.73013346,0 5.83812906,0 C6.8098445,0 7.67674789,0.104606719 7.94612465,0.104606719 L7.94612465,2.52564876 L8,2.52564876 L8,2.5266546 Z" id="Path"></path>
                    </g>
                </g>
            </g>
        </g>
    </g>
</svg>