<?xml version="1.0" encoding="UTF-8"?>
<svg width="17px" height="17px" viewBox="0 0 17 17" version="1.1" xmlns="http://www.w3.org/2000/svg" xmlns:xlink="http://www.w3.org/1999/xlink">
    <!-- Generator: sketchtool 53.1 (72631) - https://sketchapp.com -->
    <title>F834DAE0-8218-440D-B468-D601306E0F03</title>
    <desc>Created with sketchtool.</desc>
    <g id="Page-1" stroke="none" stroke-width="1" fill="none" fill-rule="evenodd">
        <g id="Home-HD" transform="translate(-122.000000, -5109.000000)" fill="#29221D" fill-rule="nonzero">
            <g id="Group-11" transform="translate(0.000000, 4545.000000)">
                <g id="Group-7-Copy-2" transform="translate(122.000000, 564.000000)">
                    <g id="insta-black">
                        <path d="M15.3949167,11.59125 C15.3566667,12.39425 15.2185417,12.8308125 15.102375,13.1209375 C14.9486667,13.5059375 14.7645,13.7795625 14.4677083,14.0683125 C14.1702083,14.356375 13.8875833,14.535125 13.491625,14.6843125 C13.1927083,14.7970625 12.743625,14.9318125 11.9155833,14.9675625 C11.0209583,15.0074375 10.7525,15.0156875 8.48654167,15.0156875 C6.219875,15.0156875 5.952125,15.0074375 5.0575,14.9675625 C4.23016667,14.931125 3.780375,14.7970625 3.48145833,14.6843125 C3.11275801,14.5523543 2.77922087,14.3418611 2.505375,14.0683125 C2.22357435,13.8024911 2.00670847,13.4787727 1.87070833,13.1209375 C1.75454167,12.8308125 1.61570833,12.39425 1.578875,11.59125 C1.53779167,10.7229375 1.52929167,10.462375 1.52929167,8.2630625 C1.52929167,6.0630625 1.53779167,5.8031875 1.578875,4.9341875 C1.61641667,4.1311875 1.75454167,3.6953125 1.87070833,3.4051875 C2.02441667,3.0201875 2.20858333,2.745875 2.505375,2.4578125 C2.802875,2.1690625 3.0855,1.991 3.48145833,1.8418125 C3.780375,1.7290625 4.23016667,1.5943125 5.0575,1.557875 C5.952125,1.5186875 6.22058333,1.50975 8.48654167,1.50975 C10.7532083,1.50975 11.0209583,1.5186875 11.9155833,1.557875 C12.743625,1.595 13.1927083,1.7290625 13.491625,1.8418125 C13.8882917,1.991 14.1709167,2.16975 14.4677083,2.4578125 C14.7652083,2.7465625 14.9486667,3.020875 15.102375,3.4051875 C15.2185417,3.6953125 15.357375,4.1311875 15.3949167,4.9341875 C15.4352917,5.8031875 15.4445,6.06375 15.4445,8.2630625 C15.4445,10.4630625 15.4352917,10.7229375 15.3949167,11.59125 M16.9220833,4.8675 C16.881,3.99025 16.7379167,3.3914375 16.5275417,2.866875 C16.3143306,2.31752284 15.9802654,1.81990163 15.548625,1.4086875 C15.1249643,0.989725259 14.6122595,0.665482875 14.04625,0.4585625 C13.5057917,0.254375 12.8888333,0.1155 11.9857083,0.075625 C11.0804583,0.03575 10.7914583,0.026125 8.48583333,0.026125 C6.18091667,0.026125 5.89191667,0.03575 4.98666667,0.075625 C4.08354167,0.1155 3.46658333,0.254375 2.92683333,0.4585625 C2.36057042,0.665394381 1.84761581,0.989641873 1.42375,1.4086875 C0.992365331,1.81996939 0.658545277,2.31758551 0.445541667,2.866875 C0.235875,3.3914375 0.0920833333,3.99025 0.051,4.8668125 C0.00991666667,5.7454375 0,6.0259375 0,8.26375 C0,10.500875 0.00991666667,10.781375 0.051,11.66 C0.0920833333,12.5365625 0.235166667,13.135375 0.445541667,13.65925 C0.658661598,14.2088481 0.992732062,14.7067118 1.42445833,15.118125 C1.84832414,15.5371706 2.36127875,15.8614181 2.92754167,16.06825 C3.46729167,16.27175 4.08425,16.4113125 4.987375,16.4511875 C5.892625,16.4910625 6.181625,16.5006875 8.48654167,16.5006875 C10.7914583,16.5006875 11.0804583,16.4910625 11.9857083,16.4511875 C12.8888333,16.4113125 13.5057917,16.2724375 14.0455417,16.06825 C14.6118046,15.8614181 15.1247592,15.5371706 15.548625,15.118125 C15.9803513,14.7067118 16.3144217,14.2088481 16.5275417,13.65925 C16.7372083,13.135375 16.881,12.5365625 16.9220833,11.66 C16.9631667,10.781375 16.9730833,10.500875 16.9730833,8.26375 C16.9730833,6.026625 16.9631667,5.746125 16.9220833,4.8675" id="Shape"></path>
                        <path d="M8.53679654,10.9964286 C7.51271249,10.9964286 6.56641981,10.4661552 6.05437778,9.60535716 C5.54233575,8.74455916 5.54233575,7.68401227 6.05437778,6.82321427 C6.56641981,5.96241626 7.51271249,5.43214284 8.53679654,5.43214286 C10.1198933,5.43214286 11.4032468,6.67775064 11.4032468,8.21428571 C11.4032468,9.75082079 10.1198933,10.9964286 8.53679654,10.9964286 M8.53679654,3.92857143 C6.0981366,3.92857143 4.12121212,5.84735107 4.12121212,8.21428571 C4.12121212,10.5812204 6.0981366,12.5 8.53679654,12.5 C10.9754565,12.5 12.952381,10.5812204 12.952381,8.21428571 C12.952381,5.84735107 10.9754565,3.92857143 8.53679654,3.92857143 M13.3203463,2.5 C12.9259622,2.49999999 12.5615363,2.70421312 12.3643442,3.03571428 C12.1671522,3.36721544 12.1671522,3.77564171 12.3643442,4.10714286 C12.5615363,4.43864402 12.9259622,4.64285715 13.3203463,4.64285714 C13.9300113,4.64285714 14.4242424,4.16316223 14.4242424,3.57142857 C14.4242424,2.97969491 13.9300113,2.5 13.3203463,2.5" id="Shape"></path>
                    </g>
                </g>
            </g>
        </g>
    </g>
</svg>