<?xml version="1.0" encoding="UTF-8"?>
<svg width="76px" height="76px" viewBox="0 0 76 76" version="1.1" xmlns="http://www.w3.org/2000/svg" xmlns:xlink="http://www.w3.org/1999/xlink">
    <!-- Generator: sketchtool 53.2 (72643) - https://sketchapp.com -->
    <title>96E71E61-0134-48CD-B6AD-5B6C79A64A09</title>
    <desc>Created with sketchtool.</desc>
    <g id="Page-1" stroke="none" stroke-width="1" fill="none" fill-rule="evenodd">
        <g id="About-HD" transform="translate(-861.000000, -4145.000000)">
            <g id="Group-8" transform="translate(-597.000000, 3718.000000)">
                <g id="slidearrow" transform="translate(1458.000000, 427.000000)">
                    <circle id="Oval" fill="#FFFFFF" cx="38" cy="38" r="38"></circle>
                    <g id="right-arrow" transform="translate(19.000000, 24.000000)" fill="#1F1A17">
                        <path d="M36.801,15.198 L0.801,15.198 C0.359,15.198 0,14.843 0,14.401 C0,13.96 0.359,13.601 0.801,13.601 L36.801,13.601 C37.242,13.601 37.602,13.96 37.602,14.401 C37.602,14.843 37.242,15.198 36.801,15.198 Z" id="Fill-1"></path>
                        <path d="M36.801,15.198 C36.594,15.198 36.391,15.12 36.234,14.964 L23.434,2.167 C23.121,1.854 23.121,1.347 23.434,1.034 C23.746,0.722 24.254,0.722 24.566,1.034 L37.367,13.835 C37.68,14.147 37.68,14.651 37.367,14.964 C37.211,15.12 37.004,15.198 36.801,15.198 Z" id="Fill-4"></path>
                        <path d="M24,27.999 C23.797,27.999 23.59,27.921 23.434,27.765 C23.121,27.452 23.121,26.948 23.434,26.636 L36.234,13.835 C36.547,13.522 37.055,13.522 37.367,13.835 C37.68,14.147 37.68,14.651 37.367,14.964 L24.566,27.765 C24.41,27.921 24.203,27.999 24,27.999 Z" id="Fill-5"></path>
                    </g>
                </g>
            </g>
        </g>
    </g>
</svg>