<?xml version="1.0" encoding="UTF-8"?>
<svg width="17px" height="16px" viewBox="0 0 17 16" version="1.1" xmlns="http://www.w3.org/2000/svg" xmlns:xlink="http://www.w3.org/1999/xlink">
    <!-- Generator: sketchtool 53.1 (72631) - https://sketchapp.com -->
    <title>DFA6FBC7-D213-42D9-B865-B0B202FEBA80</title>
    <desc>Created with sketchtool.</desc>
    <g id="Page-1" stroke="none" stroke-width="1" fill="none" fill-rule="evenodd">
        <g id="Home-HD" transform="translate(-158.000000, -5110.000000)" fill="#29221D">
            <g id="Group-11" transform="translate(0.000000, 4545.000000)">
                <g id="Group-7-Copy-2" transform="translate(122.000000, 564.000000)">
                    <g id="vimeo" transform="translate(36.000000, 1.000000)">
                        <path d="M16.9894496,3.70051927 C16.9137417,5.50067744 15.7582768,7.96649411 13.523055,11.0971692 C11.2121253,14.3654564 9.25694939,16 7.65752729,16 C6.66670883,16 5.82730624,15.0047125 5.1437297,13.0141376 L3.77143142,7.5384565 C3.26205665,5.54868166 2.71813553,4.550994 2.13378784,4.550994 C2.0066279,4.550994 1.56193564,4.84301966 0.799711048,5.42307063 L0,4.3029722 C0.832207733,3.50702706 1.6588933,2.70426707 2.47998628,1.8947606 C3.59869972,0.842668154 4.43957236,0.289019506 4.99892908,0.233814655 C6.32198044,0.0954024929 7.13565703,1.07948896 7.44069388,3.18607406 C7.77145672,5.45827372 7.99931556,6.87279801 8.12794556,7.42644666 C8.5101604,9.31141229 8.92912666,10.2538951 9.38704944,10.2538951 C9.74206822,10.2538951 10.276434,9.64264139 10.9894117,8.41853383 C11.7023893,7.19602641 12.0831341,6.26474458 12.1345861,5.62628848 C12.2374901,4.57019568 11.8552753,4.04214929 10.9930868,4.04214929 C10.585881,4.04214929 10.1661797,4.14295814 9.73471794,4.34457586 C10.5704454,1.3667142 12.1661923,-0.0798129029 14.5219588,0.00339440833 C16.2698567,0.0577991888 17.0930886,1.29150759 16.9916547,3.6997192 L16.9894496,3.70051927 Z" id="Path"></path>
                    </g>
                </g>
            </g>
        </g>
    </g>
</svg>